<svg width="50" height="50" viewBox="0 0 50 50" fill="none" xmlns="http://www.w3.org/2000/svg">
<path d="M41.6693 20.8307C41.6693 31.2328 30.1297 42.0661 26.2547 45.412C25.8937 45.6834 25.4543 45.8302 25.0026 45.8302C24.5509 45.8302 24.1115 45.6834 23.7505 45.412C19.8755 42.0661 8.33594 31.2328 8.33594 20.8307C8.33594 16.4105 10.0919 12.1712 13.2175 9.04562C16.3431 5.92001 20.5823 4.16406 25.0026 4.16406C29.4229 4.16406 33.6621 5.92001 36.7877 9.04562C39.9133 12.1712 41.6693 16.4105 41.6693 20.8307Z" stroke="white" stroke-width="4" stroke-linecap="round" stroke-linejoin="round"/>
<path d="M25.0026 27.0807C28.4544 27.0807 31.2526 24.2825 31.2526 20.8307C31.2526 17.3789 28.4544 14.5807 25.0026 14.5807C21.5508 14.5807 18.7526 17.3789 18.7526 20.8307C18.7526 24.2825 21.5508 27.0807 25.0026 27.0807Z" stroke="white" stroke-width="4" stroke-linecap="round" stroke-linejoin="round"/>
</svg>
