<svg width="50" height="50" viewBox="0 0 50 50" fill="none" xmlns="http://www.w3.org/2000/svg">
<path d="M45.832 35.2476V41.4976C45.8344 42.0778 45.7155 42.6521 45.4831 43.1837C45.2506 43.7154 44.9097 44.1926 44.4822 44.5848C44.0546 44.9771 43.5499 45.2757 43.0002 45.4616C42.4506 45.6474 41.8682 45.7165 41.2903 45.6643C34.8796 44.9677 28.7216 42.7771 23.3112 39.2684C18.2775 36.0698 14.0098 31.8021 10.8112 26.7684C7.2903 21.3334 5.09919 15.1455 4.41535 8.70593C4.36329 8.12982 4.43175 7.54918 4.61639 7.00098C4.80103 6.45278 5.09779 5.94903 5.48778 5.52181C5.87777 5.09458 6.35244 4.75324 6.88158 4.51952C7.41072 4.28579 7.98272 4.16481 8.56118 4.16426H14.8112C15.8222 4.15431 16.8024 4.51234 17.569 5.17162C18.3356 5.8309 18.8363 6.74644 18.9778 7.7476C19.2416 9.74774 19.7309 11.7116 20.4362 13.6018C20.7165 14.3474 20.7771 15.1578 20.611 15.9369C20.4448 16.716 20.0588 17.4312 19.4987 17.9976L16.8528 20.6434C19.8186 25.8592 24.1371 30.1777 29.3528 33.1434L31.9987 30.4976C32.5651 29.9375 33.2802 29.5514 34.0593 29.3853C34.8384 29.2191 35.6488 29.2798 36.3945 29.5601C38.2847 30.2654 40.2485 30.7546 42.2487 31.0184C43.2607 31.1612 44.1849 31.6709 44.8456 32.4507C45.5063 33.2305 45.8574 34.2259 45.832 35.2476Z" stroke="black" stroke-opacity="0.86" stroke-width="4" stroke-linecap="round" stroke-linejoin="round"/>
</svg>
