<svg width="40" height="40" viewBox="0 0 40 40" fill="none" xmlns="http://www.w3.org/2000/svg">
<mask id="mask0_2599_734" style="mask-type:alpha" maskUnits="userSpaceOnUse" x="0" y="0" width="40" height="40">
<rect width="40" height="40" rx="6.54867" fill="#D9D9D9"/>
</mask>
<g mask="url(#mask0_2599_734)">
<path fill-rule="evenodd" clip-rule="evenodd" d="M0.00176894 0.00354328H39.9257C39.9327 3.60531 39.9257 7.20531 39.9274 10.8071C39.9186 11.3009 39.9451 11.7965 39.915 12.2903C39.6159 12.269 39.3221 12.2053 39.0266 12.1628C35.7027 11.6407 32.3788 11.1257 29.0549 10.6035C28.8549 10.5664 28.6035 10.5965 28.4655 10.4142C27.6726 9.46018 26.7097 8.64602 25.6354 8.02832C24.0088 7.07611 22.1274 6.58407 20.2478 6.54513C19.8938 6.50443 19.5416 6.5646 19.1876 6.56106C18.2867 6.62832 17.3876 6.77168 16.5257 7.04602C15.9168 7.21947 15.3381 7.48142 14.7717 7.75752C14.531 7.87788 14.2973 8.01416 14.0655 8.15398C13.869 8.28496 13.6265 8.18938 13.4142 8.15929C9.12567 7.48496 4.8354 6.81947 0.545133 6.1469C0.364602 6.11505 0.182301 6.09204 0 6.06726V0L0.00176894 0.00354328Z" fill="#FEB918"/>
<path fill-rule="evenodd" clip-rule="evenodd" d="M39.9274 0H39.9805V39.9788H0.00177164V39.9611C0.185842 39.9557 0.368143 39.9133 0.552214 39.9398C0.699117 39.9646 0.846018 39.9416 0.99292 39.931C1.6177 39.9398 2.24248 39.9239 2.86726 39.9327C3.03894 39.9593 3.21062 39.9398 3.3823 39.9292C3.73805 39.9416 4.09204 39.9221 4.44779 39.9274C4.63186 39.9204 4.81593 39.9593 4.99823 39.9345C5.14513 39.9186 5.29204 39.9363 5.43894 39.9416C5.95221 39.9097 6.46903 39.9416 6.9823 39.9274C7.47257 39.931 7.96283 39.9204 8.45133 39.9398C8.80708 39.9168 9.16283 39.9204 9.51859 39.9398C9.67788 39.9363 9.83717 39.9168 9.99646 39.9345C10.1929 39.9611 10.3876 39.9097 10.5841 39.9345C10.7558 39.9593 10.9257 39.9239 11.0973 39.9257C11.3062 39.9257 11.515 39.9204 11.7221 39.9327C11.931 39.9558 12.1381 39.908 12.3469 39.9345C12.4814 39.9558 12.6159 39.9345 12.7504 39.9274C13.6566 39.9451 14.5628 39.9044 15.469 39.938C15.9345 39.9168 16.4 39.931 16.8655 39.9257C17.3681 39.9345 17.8708 39.9062 18.3717 39.9434C18.4938 39.9381 18.6159 39.9221 18.7398 39.9274C19.0089 39.9434 19.2796 39.9115 19.5487 39.9434C20.0372 39.9044 20.5292 39.9451 21.0177 39.9274C21.1646 39.9274 21.3115 39.9575 21.4584 39.9345C21.6549 39.9062 21.8496 39.9646 22.046 39.9345C22.2425 39.9115 22.4372 39.9522 22.6336 39.931C22.8301 39.9133 23.0266 39.954 23.2212 39.931C23.4177 39.9097 23.6142 39.9575 23.8089 39.9345C23.9681 39.9168 24.1274 39.9416 24.2867 39.9416C24.6779 39.9115 25.0708 39.9274 25.462 39.938C25.6938 39.9133 25.9274 39.9469 26.1611 39.931C26.3823 39.9133 26.6018 39.9611 26.823 39.9292C27.2513 39.9381 27.6796 39.9204 28.1097 39.9292C28.2319 39.9327 28.354 39.9522 28.4761 39.9363C28.7097 39.9062 28.9416 39.9699 29.1752 39.9327C29.8124 39.9274 30.4496 39.931 31.0867 39.9327C31.246 39.9522 31.4053 39.9434 31.5646 39.931C32.1027 39.9451 32.6407 39.9274 33.1805 39.9363C33.6336 39.908 34.0867 39.9504 34.5416 39.9292C34.7133 39.9381 34.885 39.954 35.0566 39.931C35.4973 39.931 35.9381 39.9239 36.3788 39.931C36.6106 39.9646 36.8442 39.915 37.0779 39.9274C37.5062 39.9363 37.9363 39.9133 38.3628 39.9451C38.8814 39.9097 39.4035 39.9328 39.9239 39.9257C39.9345 38.1416 39.9257 36.3593 39.9274 34.5752C39.9257 33.0885 39.9327 31.6018 39.9239 30.115C38.1646 30.377 36.4071 30.6619 34.6478 30.9345C23.292 32.708 11.9363 34.4814 0.582302 36.2566C0.389382 36.2885 0.19469 36.3186 0 36.3345V34.7681C5.88496 33.846 11.7699 32.9257 17.6566 32.0106C17.6602 31.1363 17.5735 30.2637 17.492 29.3947C17.4177 28.6673 17.246 27.9469 16.9575 27.2726C16.7186 26.731 16.3982 26.2212 15.9788 25.8C15.5186 25.3257 14.9363 24.9805 14.315 24.7611C13.5097 24.4761 12.6478 24.3894 11.7965 24.4053C11.5204 24.3929 11.2389 24.4301 10.9664 24.3823C10.908 24.3257 10.8796 24.2442 10.8442 24.1735C10.6159 23.6619 10.3611 23.1628 10.1628 22.6389C10.0796 22.446 9.99646 22.2496 9.96991 22.0389C9.95575 22.0301 9.92743 22.0124 9.91328 22.0035C9.42124 20.5858 9.09912 19.1027 9.05133 17.6C8.98053 16.2673 9.1646 14.9204 9.60885 13.6619C10.0637 12.3611 10.777 11.1469 11.7027 10.1257C11.8761 9.93097 12.0637 9.74867 12.2372 9.55398C8.15929 8.9115 4.08142 8.2761 0.00177164 7.64071V6.06371C0.184073 6.09026 0.366374 6.11327 0.546905 6.14336C4.83717 6.81416 9.12744 7.48141 13.4159 8.15575C13.6283 8.18584 13.8708 8.28141 14.0673 8.15044C14.2973 8.00885 14.531 7.87434 14.7735 7.75398C15.3416 7.47788 15.9186 7.21593 16.5274 7.04247C17.3894 6.76814 18.2885 6.62478 19.1894 6.55752C19.5434 6.56106 19.8956 6.50088 20.2496 6.54159C22.1292 6.58053 24.0106 7.07257 25.6372 8.02478C26.7133 8.64248 27.6743 9.45663 28.4673 10.4106C28.6053 10.5929 28.8549 10.5628 29.0566 10.6C32.3805 11.1204 35.7044 11.6354 39.0283 12.1593C39.3239 12.2 39.6177 12.2655 39.9168 12.2867C39.9469 11.7929 39.9204 11.2973 39.9292 10.8035C39.9274 7.20177 39.9327 3.60177 39.9274 0ZM15.4018 9.18938C14.0673 9.88849 12.9115 10.9257 12.0761 12.1805C11.1699 13.5398 10.6407 15.1558 10.6018 16.7912C10.554 18.846 11.0478 20.892 11.908 22.7504C11.931 22.7965 11.9575 22.8566 12.0212 22.8407C13.3805 22.8496 14.7717 23.1115 15.9504 23.8142C16.6354 24.2212 17.2301 24.7735 17.6938 25.4212C18.5469 26.6053 18.9522 28.0549 19.0743 29.4956C19.1416 30.2442 19.2177 30.9947 19.2142 31.7469C19.7168 31.7204 20.2088 31.5982 20.708 31.5363C20.7274 30.823 20.7912 30.1097 20.8602 29.4C20.9823 28.0442 21.3717 26.6885 22.1381 25.5522C22.5894 24.8867 23.1752 24.3133 23.8584 23.8867C25.0266 23.1504 26.423 22.869 27.7876 22.8442C27.8496 22.8389 27.9168 22.8513 27.9752 22.8248C28.0796 22.6513 28.1469 22.4566 28.2283 22.2708C28.9186 20.6354 29.3274 18.8673 29.3221 17.0867C29.3451 15.4212 28.8513 13.7593 27.9611 12.354C27.2124 11.1628 26.1735 10.1558 24.9646 9.4354C23.6832 8.66903 22.2177 8.22832 20.731 8.12389C18.9044 7.99115 17.0301 8.3292 15.4053 9.18938H15.4018ZM29.715 12.2832C30.5681 13.9221 30.977 15.7912 30.8673 17.6372C30.8177 18.9469 30.5699 20.246 30.1717 21.492C29.8602 22.4867 29.4265 23.4389 28.9699 24.3735C28.8531 24.4319 28.715 24.4 28.5912 24.4071C27.9204 24.4071 27.2425 24.3876 26.5805 24.5115C25.7522 24.6496 24.9363 24.9575 24.2796 25.492C23.4053 26.1965 22.8726 27.246 22.6106 28.3221C22.4319 29.0549 22.3823 29.8089 22.3239 30.5575C22.2832 30.7982 22.2903 31.0443 22.2779 31.2885C22.4991 31.2566 22.7221 31.2248 22.9416 31.177C23.3929 31.1221 23.8389 31.0354 24.2903 30.9735C27.9204 30.4035 31.5504 29.8389 35.1805 29.2708C36.7646 29.0195 38.3504 28.7841 39.931 28.5239C39.931 23.6425 39.9345 18.7593 39.931 13.8779C36.5257 13.3504 33.1221 12.8159 29.7186 12.2832H29.715Z" fill="#FFFFFE"/>
<path fill-rule="evenodd" clip-rule="evenodd" d="M0.00176894 7.64844C4.07965 8.28384 8.15929 8.91923 12.2372 9.56171C12.0637 9.7564 11.8761 9.93693 11.7027 10.1334C10.777 11.1564 10.0637 12.3688 9.60885 13.6697C9.16283 14.9281 8.97876 16.275 9.05133 17.6077C9.09912 19.1104 9.42124 20.5953 9.91327 22.0113C9.92743 22.0201 9.95575 22.0378 9.96991 22.0467C9.99646 22.2573 10.0796 22.452 10.1628 22.6467C10.3628 23.1706 10.6159 23.6697 10.8442 24.1812C10.8796 24.2537 10.908 24.3334 10.9664 24.39C11.2389 24.4378 11.5204 24.4006 11.7965 24.413C12.646 24.3971 13.5097 24.4821 14.315 24.7688C14.9363 24.9883 15.5186 25.3334 15.9788 25.8077C16.3965 26.229 16.7186 26.7387 16.9575 27.2803C17.246 27.9546 17.4177 28.6732 17.492 29.4024C17.5752 30.2714 17.6619 31.144 17.6566 32.0183C11.7699 32.9334 5.88496 33.8537 0 34.7759V7.65021L0.00176894 7.64844ZM9.92389 22.0768C9.8938 22.1299 9.90265 22.1546 9.95398 22.1511C9.97699 22.1033 9.96637 22.0785 9.92389 22.0768ZM29.7133 12.2891C33.1168 12.8219 36.5221 13.3546 39.9257 13.8838C39.931 18.7653 39.9274 23.6484 39.9257 28.5299C38.3434 28.79 36.7575 29.0254 35.1752 29.2768C31.5451 29.8449 27.915 30.4095 24.285 30.9794C23.8354 31.0414 23.3876 31.1281 22.9363 31.1829C22.7504 31.1918 22.5646 31.2272 22.377 31.2148C22.3221 31.1635 22.3221 31.0856 22.3168 31.0183C22.3115 30.8661 22.3168 30.7139 22.3186 30.5635C22.3752 29.8148 22.4265 29.0608 22.6053 28.3281C22.8673 27.252 23.4 26.2024 24.2743 25.498C24.9292 24.9635 25.7469 24.6555 26.5752 24.5175C27.2389 24.3936 27.915 24.4113 28.5858 24.413C28.7115 24.406 28.8478 24.436 28.9646 24.3794C29.4212 23.4449 29.8566 22.4945 30.1664 21.498C30.5646 20.2502 30.8124 18.9511 30.8619 17.6431C30.9717 15.7971 30.5628 13.9281 29.7097 12.2891H29.7133Z" fill="#18AB1C"/>
<path fill-rule="evenodd" clip-rule="evenodd" d="M15.4005 9.19489C17.0252 8.33648 18.8996 7.99666 20.7261 8.1294C22.2129 8.23383 23.6801 8.67454 24.9598 9.44091C26.1668 10.163 27.2076 11.1683 27.9562 12.3595C28.8465 13.763 29.3421 15.425 29.3173 17.0922C29.3226 18.8728 28.9137 20.6391 28.2235 22.2763C28.1421 22.4621 28.0748 22.6551 27.9704 22.8303C27.912 22.8568 27.8447 22.8444 27.7828 22.8498C26.4182 22.8728 25.0217 23.156 23.8536 23.8922C23.1721 24.3188 22.5863 24.8922 22.1332 25.5577C21.3668 26.6958 20.9757 28.0498 20.8553 29.4055C20.7881 30.117 20.7244 30.8285 20.7031 31.5418C20.204 31.602 19.712 31.7241 19.2093 31.7524C19.2129 31.0002 19.1367 30.2498 19.0695 29.5011C18.9491 28.0604 18.5421 26.6108 17.689 25.4268C17.2252 24.779 16.6288 24.2267 15.9456 23.8197C14.7668 23.117 13.3757 22.8568 12.0164 22.8462C11.9527 22.8621 11.9261 22.8037 11.9031 22.7559C11.0429 20.8975 10.5491 18.8498 10.5969 16.7967C10.6376 15.1613 11.1651 13.5471 12.0713 12.186C12.9067 10.9312 14.0624 9.894 15.3969 9.19489H15.4005Z" fill="#0174FA"/>
<path fill-rule="evenodd" clip-rule="evenodd" d="M9.92816 22.0781C9.97241 22.0781 9.98303 22.1029 9.95825 22.1525C9.90692 22.156 9.89631 22.133 9.92816 22.0781ZM34.6538 30.9418C36.4131 30.6693 38.1689 30.3843 39.9299 30.1224C39.9388 31.6091 39.9299 33.0958 39.9335 34.5826C39.9317 36.3666 39.9405 38.1507 39.9299 39.933C39.4096 39.9383 38.8875 39.9153 38.3689 39.9525C37.9406 39.9206 37.5122 39.9436 37.0839 39.9348C36.8503 39.9224 36.6184 39.9737 36.3848 39.9383C35.9441 39.9295 35.5034 39.9383 35.0627 39.9383C34.891 39.9595 34.7193 39.9436 34.5476 39.9365C34.0945 39.9578 33.6414 39.9153 33.1866 39.9436C32.6467 39.9348 32.1087 39.9507 31.5706 39.9383C31.4114 39.9507 31.2521 39.9613 31.0928 39.9401C30.4556 39.9401 29.8184 39.9365 29.1813 39.9401C28.9494 39.9772 28.7158 39.9153 28.4821 39.9436C28.36 39.9578 28.2379 39.9383 28.1158 39.9365C27.6875 39.9277 27.2574 39.9472 26.829 39.9365C26.6078 39.9702 26.3883 39.9206 26.1671 39.9383C25.9335 39.9525 25.7016 39.9188 25.468 39.9454C25.0768 39.9348 24.6839 39.9188 24.2928 39.9489C24.1335 39.9489 23.9742 39.9224 23.8149 39.9418C23.6184 39.9649 23.4237 39.9188 23.2273 39.9383C23.0308 39.9631 22.8361 39.9206 22.6397 39.9383C22.4432 39.9578 22.2467 39.9171 22.0521 39.9418C21.8556 39.9719 21.6609 39.9135 21.4644 39.9418C21.3175 39.9649 21.1706 39.9348 21.0237 39.9348C20.5335 39.9542 20.0432 39.9135 19.5547 39.9507C19.2857 39.9188 19.0149 39.9507 18.7459 39.9348C18.622 39.9277 18.5016 39.9436 18.3777 39.9507C17.8768 39.9153 17.3724 39.9436 16.8715 39.933C16.406 39.9383 15.9406 39.9241 15.4751 39.9454C14.5689 39.91 13.6627 39.9507 12.7565 39.9348C12.622 39.9401 12.4875 39.9613 12.3529 39.9418C12.1459 39.9153 11.937 39.9631 11.7282 39.9401C11.5211 39.9277 11.3122 39.933 11.1034 39.933C10.9317 39.933 10.76 39.9666 10.5901 39.9418C10.3937 39.9171 10.199 39.9684 10.0025 39.9418C9.84321 39.9241 9.68392 39.9418 9.52462 39.9472C9.16887 39.9259 8.81312 39.9224 8.45737 39.9472C7.96887 39.9259 7.47861 39.9383 6.98834 39.9348C6.4733 39.9489 5.95825 39.9171 5.44498 39.9489C5.29808 39.9436 5.15117 39.9259 5.00427 39.9418C4.8202 39.9649 4.6379 39.9277 4.45383 39.9348C4.09808 39.9295 3.74409 39.9489 3.38834 39.9365C3.21666 39.9454 3.04498 39.9666 2.8733 39.9401C2.24852 39.9312 1.62374 39.9472 0.998961 39.9383C0.852059 39.9489 0.705158 39.9719 0.558255 39.9472C0.374184 39.9206 0.190113 39.9613 0.0078125 39.9684V36.3436C0.202503 36.3277 0.397192 36.2976 0.590112 36.2657C11.9459 34.4905 23.2998 32.7153 34.6556 30.9436L34.6538 30.9418ZM22.3264 30.5649C22.2857 30.8056 22.2928 31.0516 22.2804 31.2958C22.5016 31.264 22.7246 31.2321 22.9441 31.1843C22.7582 31.1932 22.5724 31.2286 22.3848 31.2162C22.3299 31.1649 22.3299 31.087 22.3246 31.0197C22.3193 30.8675 22.3246 30.7153 22.3264 30.5649Z" fill="#81D814"/>
</g>
</svg>
