<svg width="85" height="85" viewBox="0 0 85 85" fill="none" xmlns="http://www.w3.org/2000/svg">
<path d="M13.9208 58.9C13.2479 58.9 12.575 58.6521 12.0437 58.1208C11.0167 57.0938 11.0167 55.3938 12.0437 54.3667L54.3667 12.0438C55.3937 11.0167 57.0937 11.0167 58.1208 12.0438C59.1479 13.0708 59.1479 14.7708 58.1208 15.7979L15.7979 58.1562C15.3021 58.6521 14.5937 58.9 13.9208 58.9Z" fill="#FF7C33"/>
<path d="M39.3115 67.3974C38.6385 67.3974 37.9656 67.1495 37.4344 66.6182C36.4073 65.5911 36.4073 63.8911 37.4344 62.8641L41.6844 58.6141C42.7115 57.587 44.4115 57.587 45.4385 58.6141C46.4656 59.6411 46.4656 61.3412 45.4385 62.3682L41.1885 66.6182C40.6927 67.1141 40.0198 67.3974 39.3115 67.3974Z" fill="#FF7C33"/>
<path d="M48.8427 57.8698C48.1698 57.8698 47.4969 57.6219 46.9656 57.0906C45.9385 56.0635 45.9385 54.3635 46.9656 53.3365L55.4302 44.8719C56.4573 43.8448 58.1573 43.8448 59.1844 44.8719C60.2115 45.899 60.2115 47.599 59.1844 48.626L50.7198 57.0906C50.224 57.5865 49.5156 57.8698 48.8427 57.8698Z" fill="#FF7C33"/>
<path d="M39.3131 80.5735C35.8423 80.5735 32.3715 78.4485 28.1569 74.234L10.7673 56.8444C2.30271 48.3798 2.33813 42.9256 10.8735 34.3902L34.3902 10.8735C42.9256 2.33813 48.3798 2.30271 56.8444 10.7673L74.234 28.1569C82.6985 36.6215 82.6631 42.0756 74.1277 50.611L50.611 74.1277C46.3256 78.4131 42.8194 80.5735 39.3131 80.5735ZM45.6881 9.74021C43.8465 9.74021 41.509 11.2631 38.1444 14.6277L14.6277 38.1444C11.2631 41.509 9.74022 43.8465 9.74022 45.6527C9.74022 47.4944 11.1569 49.7256 14.5215 53.0902L31.9111 70.4798C35.2756 73.8444 37.4715 75.261 39.3131 75.261C39.3131 75.261 39.3131 75.261 39.3485 75.261C41.1902 75.261 43.4923 73.7381 46.8569 70.3736L70.3736 46.8569C73.7381 43.4923 75.261 41.1548 75.261 39.3485C75.261 37.5069 73.8444 35.2756 70.4798 31.911L53.0902 14.5215C49.761 11.1569 47.5298 9.74021 45.6881 9.74021Z" fill="#FF7C33"/>
<path d="M77.9193 80.5703H7.08594C5.63385 80.5703 4.42969 79.3661 4.42969 77.9141C4.42969 76.462 5.63385 75.2578 7.08594 75.2578H77.9193C79.3714 75.2578 80.5755 76.462 80.5755 77.9141C80.5755 79.3661 79.3714 80.5703 77.9193 80.5703Z" fill="#FF7C33"/>
</svg>
