<svg width="85" height="85" viewBox="0 0 85 85" fill="none" xmlns="http://www.w3.org/2000/svg">
<path d="M74.375 80.5703H10.625C9.17292 80.5703 7.96875 79.3661 7.96875 77.9141C7.96875 76.462 9.17292 75.2578 10.625 75.2578H74.375C75.8271 75.2578 77.0312 76.462 77.0312 77.9141C77.0312 79.3661 75.8271 80.5703 74.375 80.5703Z" fill="#FF7C33"/>
<path d="M19.8332 69.9484H14.1667C10.7667 69.9484 7.96875 67.1505 7.96875 63.7505V33.2214C7.96875 29.8214 10.7667 27.0234 14.1667 27.0234H19.8332C23.2332 27.0234 26.0312 29.8214 26.0312 33.2214V63.7505C26.0312 67.1505 23.2332 69.9484 19.8332 69.9484ZM14.1667 32.3005C13.6708 32.3005 13.2812 32.6901 13.2812 33.1859V63.7505C13.2812 64.2463 13.6708 64.6359 14.1667 64.6359H19.8332C20.3291 64.6359 20.7187 64.2463 20.7187 63.7505V33.2214C20.7187 32.7255 20.3291 32.3359 19.8332 32.3359H14.1667V32.3005Z" fill="#FF7C33"/>
<path d="M45.3332 69.9495H39.6667C36.2667 69.9495 33.4688 67.1516 33.4688 63.7516V21.9245C33.4688 18.5245 36.2667 15.7266 39.6667 15.7266H45.3332C48.7332 15.7266 51.5312 18.5245 51.5312 21.9245V63.7516C51.5312 67.1516 48.7332 69.9495 45.3332 69.9495ZM39.6667 21.0391C39.1708 21.0391 38.7812 21.4286 38.7812 21.9245V63.7516C38.7812 64.2474 39.1708 64.637 39.6667 64.637H45.3332C45.8291 64.637 46.2187 64.2474 46.2187 63.7516V21.9245C46.2187 21.4286 45.8291 21.0391 45.3332 21.0391H39.6667Z" fill="#FF7C33"/>
<path d="M70.8332 69.9505H65.1667C61.7667 69.9505 58.9688 67.1526 58.9688 63.7526V10.6276C58.9688 7.2276 61.7667 4.42969 65.1667 4.42969H70.8332C74.2332 4.42969 77.0312 7.2276 77.0312 10.6276V63.7526C77.0312 67.1526 74.2332 69.9505 70.8332 69.9505ZM65.1667 9.74219C64.6708 9.74219 64.2812 10.1318 64.2812 10.6276V63.7526C64.2812 64.2484 64.6708 64.638 65.1667 64.638H70.8332C71.3291 64.638 71.7187 64.2484 71.7187 63.7526V10.6276C71.7187 10.1318 71.3291 9.74219 70.8332 9.74219H65.1667Z" fill="#FF7C33"/>
</svg>
