<svg width="409" height="457" viewBox="0 0 409 457" fill="none" xmlns="http://www.w3.org/2000/svg">
<path d="M241.241 -91.266L469.474 179.238C482.64 194.843 486.659 211.816 480.065 223.965C473.472 236.114 457.229 241.663 437.263 238.588L215.895 204.494L379.656 395.598C393.07 411.253 397.275 428.375 390.718 440.647C384.161 452.92 367.814 458.523 347.708 455.391L18.604 404.117L0.556363 336.469C-2.42298 325.302 7.05831 314.756 18.4787 316.536L227.331 349.074L63.742 158.168L63.1204 157.434C50.2134 141.998 46.234 125.237 52.659 113.158C59.1861 100.888 75.4865 95.263 95.5583 98.3544L318.052 132.622L167.805 -45.4523C160.405 -54.2238 164.373 -67.7042 175.345 -71.0676L241.241 -91.266Z" fill="#FF7C33"/>
</svg>
