<svg width="24" height="24" viewBox="0 0 24 24" fill="none" xmlns="http://www.w3.org/2000/svg">
<path d="M10.7334 5.07599C13.0628 4.7984 15.419 5.29081 17.4423 6.47804C19.4655 7.66527 21.0446 9.48207 21.9384 11.651C22.0217 11.8755 22.0217 12.1225 21.9384 12.347C21.5709 13.238 21.0852 14.0755 20.4944 14.837M14.0846 14.158C13.5188 14.7045 12.761 15.0069 11.9744 15C11.1878 14.9932 10.4354 14.6777 9.87917 14.1215C9.32294 13.5652 9.00744 12.8128 9.0006 12.0262C8.99377 11.2396 9.29615 10.4818 9.84262 9.91602M17.4795 17.4988C16.153 18.2846 14.673 18.7758 13.1399 18.9392C11.6068 19.1026 10.0565 18.9342 8.59414 18.4457C7.13182 17.9571 5.7917 17.1597 4.66472 16.1075C3.53773 15.0554 2.65026 13.7731 2.06251 12.3478C1.97916 12.1233 1.97916 11.8763 2.06251 11.6518C2.94914 9.50164 4.50918 7.69704 6.50851 6.50879M2.00049 2L22.0005 22" stroke="black" stroke-width="2" stroke-linecap="round" stroke-linejoin="round"/>
</svg>
