<svg width="85" height="85" viewBox="0 0 85 85" fill="none" xmlns="http://www.w3.org/2000/svg">
<path d="M42.5 28.3351V74.3767M42.5 28.3351C41.2189 23.0559 39.013 18.5424 36.1701 15.3836C33.3272 12.2248 29.9791 10.567 26.5625 10.6265C24.2142 10.6265 21.9621 11.5594 20.3017 13.2199C18.6412 14.8804 17.7083 17.1324 17.7083 19.4807C17.7083 21.829 18.6412 24.0811 20.3017 25.7416C21.9621 27.402 24.2142 28.3349 26.5625 28.3349M42.5 28.3351C43.7811 23.0559 45.987 18.5424 48.8299 15.3836C51.6728 12.2248 55.0209 10.567 58.4375 10.6265C60.7858 10.6265 63.0379 11.5594 64.6983 13.2199C66.3588 14.8804 67.2917 17.1324 67.2917 19.4807C67.2917 21.829 66.3588 24.0811 64.6983 25.7416C63.0379 27.402 60.7858 28.3349 58.4375 28.3349M67.2917 42.5017V67.2934C67.2917 69.172 66.5454 70.9737 65.217 72.3021C63.8886 73.6304 62.087 74.3767 60.2083 74.3767H24.7917C22.9131 74.3767 21.1114 73.6304 19.783 72.3021C18.4546 70.9737 17.7083 69.172 17.7083 67.2934V42.5017M14.1667 28.3351H70.8333C72.7893 28.3351 74.375 29.9207 74.375 31.8767V38.9601C74.375 40.9161 72.7893 42.5017 70.8333 42.5017H14.1667C12.2107 42.5017 10.625 40.9161 10.625 38.9601V31.8767C10.625 29.9207 12.2107 28.3351 14.1667 28.3351Z" stroke="#FF7C33" stroke-width="4" stroke-linecap="round" stroke-linejoin="round"/>
</svg>
