<svg width="108" height="105" viewBox="0 0 108 105" fill="none" xmlns="http://www.w3.org/2000/svg">
<rect width="107.256" height="105" rx="24" fill="#FF7C33"/>
<path d="M50.7172 57.5507H55.9391C57.324 57.5507 58.6522 57.0005 59.6315 56.0212C60.6108 55.0419 61.1609 53.7137 61.1609 52.3288C61.1609 50.9439 60.6108 49.6157 59.6315 48.6364C58.6522 47.6571 57.324 47.1069 55.9391 47.1069H48.1062C46.5397 47.1069 45.2342 47.6291 44.4509 48.6735L29.8297 62.7725M40.2734 73.2157L44.4509 69.5604C45.2342 68.516 46.5397 67.9938 48.1062 67.9938H58.55C61.422 67.9938 64.033 66.9495 65.8606 64.8607L77.8709 53.3726C78.8784 52.4205 79.4665 51.1071 79.5057 49.7214C79.5448 48.3357 79.0319 46.9912 78.0798 45.9836C77.1277 44.9761 75.8143 44.3881 74.4286 44.3489C73.0429 44.3097 71.6984 44.8226 70.6908 45.7748L59.7249 55.9574M27.2188 60.1616L42.8844 75.8272M72.9105 43.1905C74.7382 41.3629 76.8269 39.013 76.8269 36.141C77.0094 34.5455 76.6478 32.9352 75.8007 31.5709C74.9535 30.2066 73.6705 29.1684 72.1596 28.6245C70.6486 28.0805 68.9983 28.0627 67.476 28.574C65.9536 29.0853 64.6486 30.0956 63.7722 31.4413C62.8402 30.2 61.5348 29.2902 60.0476 28.8455C58.5604 28.4007 56.9699 28.4444 55.5094 28.9702C54.0489 29.496 52.7954 30.4761 51.933 31.7667C51.0705 33.0574 50.6445 34.5905 50.7176 36.141C50.7176 39.2741 52.8063 41.3629 54.634 43.4516L63.7722 52.3288L72.9105 43.1905Z" stroke="white" stroke-width="4" stroke-linecap="round" stroke-linejoin="round"/>
</svg>
