<svg width="253" height="42" viewBox="0 0 253 42" fill="none" xmlns="http://www.w3.org/2000/svg">
<path d="M108.039 13.3017L109.538 6.63281H144.033L142.494 13.3017H130.033L125.003 35.6576H116.461L121.491 13.3017H108.039Z" fill="black"/>
<path d="M181.193 6.63281H189.907L194.13 27.148L206.779 6.63281H217.606L211.014 35.6076L202.344 35.6518L206.233 18.5558H205.644L196.302 35.6438L189.53 35.6518L187.483 18.5558H187.137L183.26 35.5955H174.598L181.186 6.63281H181.193Z" fill="black"/>
<path d="M76.1589 6.63281H98.1139C98.1139 6.63281 105.514 6.83088 104.935 13.9817C104.36 21.1326 98.8818 21.1326 98.8818 21.1326C98.8818 21.1326 104.966 22.2644 103.927 27.5922C102.674 34.0114 98.5451 35.3567 93.5516 35.6518C88.4262 35.6518 70.0117 35.6518 70.0117 35.6518L74.1504 15.5617H82.7749L79.731 28.9551H91.7302C91.7302 28.9551 93.8814 29.0232 94.7478 27.5922C95.6142 26.1612 95.0933 23.9905 91.7302 23.9905C88.367 23.9905 84.5746 23.942 84.5746 23.942L85.7758 18.6142C85.7758 18.6142 90.336 18.6142 91.7302 18.6142C93.1243 18.6142 96.2698 18.3013 96.2698 15.7647C96.2698 13.228 91.7302 13.339 91.7302 13.339C91.7302 13.339 74.8606 13.3295 74.6703 13.3295C76.1589 6.63281 75.6564 8.86364 76.1589 6.63281Z" fill="black"/>
<path d="M141.117 35.6518L147.533 6.63281H177.104L175.623 13.3023H154.471L153.311 18.5558L169.47 18.4512L168.28 23.8334L152.12 23.938L150.945 28.9551H172.237L170.837 35.6518H141.117Z" fill="black"/>
<path d="M217.016 35.6518L223.431 6.63281H253.002L251.521 13.3023H230.37L229.21 18.5558L245.369 18.4512L244.178 23.8334L228.019 23.938L226.843 28.9551H248.136L246.735 35.6518H217.016Z" fill="black"/>
<path d="M0 0H14.1365V4.34971C14.1365 9.62244 9.86213 13.8968 4.5894 13.8968H0V0Z" fill="black"/>
<path d="M9.42435 20.0723C9.85273 21.9673 11.2503 24.6656 12.8381 26.4973C15.6946 29.7927 19.9626 32.5367 25.8954 32.4509V41.6896C16.4391 41.8263 9.9374 36.8715 5.94795 32.2691C3.96088 29.9767 2.53951 27.6649 1.59675 25.8671C0.707908 24.172 0.42838 23.5816 0 21.6164L9.42435 20.0723Z" fill="black"/>
<path d="M54.3125 0H40.176V4.34971C40.176 9.62244 44.4504 13.8968 49.7231 13.8968H54.3125V0Z" fill="black"/>
<path d="M44.8882 20.0723C44.4598 21.9673 43.0622 24.6656 41.4744 26.4973C38.6179 29.7927 34.3499 32.5367 28.4171 32.4509V41.6896C37.8734 41.8263 44.3751 36.8715 48.3646 32.2691C50.3516 29.9767 51.773 27.6649 52.7158 25.8671C53.6046 24.172 53.8841 23.5816 54.3125 21.6164L44.8882 20.0723Z" fill="black"/>
</svg>
