<svg width="979" height="1190" viewBox="0 0 979 1190" fill="none" xmlns="http://www.w3.org/2000/svg">
<path d="M657.314 0C657.608 4.99522 657.275 10.0846 656.261 15.1602L537.557 609.068L881.978 330.253C904.438 312.071 936.716 312.656 958.503 331.64C980.29 350.624 985.287 382.517 970.35 407.255L497.85 1189.75C441.589 1155.78 423.52 1082.63 457.492 1026.37L693.016 636.326L484.353 805.245C464.867 821.019 437.585 822.887 416.132 809.917C394.678 796.947 383.656 771.921 388.569 747.338L502.112 179.245L168.271 502.89C121.083 548.635 45.7456 547.466 0 500.278L516.042 0H657.314Z" fill="white"/>
</svg>
