<svg width="105" height="105" viewBox="0 0 105 105" fill="none" xmlns="http://www.w3.org/2000/svg">
<rect width="105" height="105" rx="24" fill="#FF7C33"/>
<path d="M78.3184 47.8317C79.4982 53.6217 78.6574 59.6412 75.9362 64.8864C73.215 70.1315 68.7779 74.2852 63.3648 76.6548C57.9518 79.0244 51.8899 79.4667 46.1903 77.9078C40.4906 76.349 35.4976 72.8833 32.0439 68.0887C28.5902 63.2941 26.8846 57.4604 27.2115 51.5605C27.5384 45.6605 29.878 40.051 33.8403 35.6672C37.8025 31.2835 43.1478 28.3907 48.9848 27.4711C54.8218 26.5514 60.7977 27.6607 65.9158 30.6138M45.2489 50.4151L52.9989 58.1651L78.8322 32.3317" stroke="white" stroke-width="4" stroke-linecap="round" stroke-linejoin="round"/>
</svg>
