<svg width="105" height="105" viewBox="0 0 105 105" fill="none" xmlns="http://www.w3.org/2000/svg">
<rect width="105" height="105" rx="24" fill="white"/>
<path d="M51.9974 62.3333V75.25M62.3307 57.1667V75.25M72.6641 46.8333V75.25M77.8307 28.75L55.4952 51.0855C55.3752 51.2058 55.2327 51.3012 55.0758 51.3663C54.9189 51.4315 54.7506 51.465 54.5807 51.465C54.4108 51.465 54.2426 51.4315 54.0857 51.3663C53.9288 51.3012 53.7862 51.2058 53.6662 51.0855L45.1619 42.5812C44.9197 42.339 44.5912 42.203 44.2487 42.203C43.9062 42.203 43.5777 42.339 43.3355 42.5812L26.1641 59.75M31.3307 67.5V75.25M41.6641 57.1667V75.25" stroke="black" stroke-width="4" stroke-linecap="round" stroke-linejoin="round"/>
</svg>
