<svg width="30" height="30" viewBox="0 0 30 30" fill="none" xmlns="http://www.w3.org/2000/svg">
<path d="M19.4926 8.50913C16.4596 5.47612 11.5421 5.47612 8.50913 8.50913C5.47612 11.5421 5.47612 16.4596 8.50913 19.4926C11.5421 22.5256 16.4596 22.5256 19.4926 19.4926C22.5256 16.4596 22.5256 11.5421 19.4926 8.50913ZM6.74136 6.74136C10.7507 2.73204 17.2511 2.73204 21.2604 6.74136C24.9705 10.4515 25.2474 16.2948 22.091 20.3232L27.2484 25.4806C27.7365 25.9687 27.7365 26.7602 27.2484 27.2484C26.7602 27.7365 25.9687 27.7365 25.4806 27.2484L20.3232 22.091C16.2948 25.2474 10.4515 24.9705 6.74136 21.2604C2.73204 17.2511 2.73204 10.7507 6.74136 6.74136Z" fill="black"/>
</svg>
