<svg width="85" height="85" viewBox="0 0 85 85" fill="none" xmlns="http://www.w3.org/2000/svg">
<path d="M42.4974 45.1589C31.2703 45.1589 22.1328 36.0214 22.1328 24.7943C22.1328 13.5672 31.2703 4.42969 42.4974 4.42969C53.7245 4.42969 62.862 13.5672 62.862 24.7943C62.862 36.0214 53.7245 45.1589 42.4974 45.1589ZM42.4974 9.74219C34.2099 9.74219 27.4453 16.5068 27.4453 24.7943C27.4453 33.0818 34.2099 39.8464 42.4974 39.8464C50.7849 39.8464 57.5495 33.0818 57.5495 24.7943C57.5495 16.5068 50.7849 9.74219 42.4974 9.74219Z" fill="#FF7C33"/>
<path d="M72.9239 80.5729C71.4719 80.5729 70.2677 79.3687 70.2677 77.9167C70.2677 65.6979 57.801 55.7812 42.501 55.7812C27.201 55.7812 14.7344 65.6979 14.7344 77.9167C14.7344 79.3687 13.5302 80.5729 12.0781 80.5729C10.626 80.5729 9.42188 79.3687 9.42188 77.9167C9.42188 62.7937 24.2614 50.4688 42.501 50.4688C60.7406 50.4688 75.5802 62.7937 75.5802 77.9167C75.5802 79.3687 74.376 80.5729 72.9239 80.5729Z" fill="#FF7C33"/>
</svg>
