<svg width="40" height="40" viewBox="0 0 40 40" fill="none" xmlns="http://www.w3.org/2000/svg">
<path fill-rule="evenodd" clip-rule="evenodd" d="M20 0C11.1633 0 4 7.16312 4 15.9997C4 20.4166 5.79045 24.4161 8.68405 27.3111C11.5791 30.2076 18.4001 34.3992 18.8001 38.8001C18.8608 39.46 19.3387 40 20 40C20.6628 40 21.1407 39.46 21.2013 38.8001C21.6013 34.3992 28.4209 30.2076 31.316 27.3111C34.211 24.4161 36 20.4166 36 15.9997C36 7.16312 28.8368 0 20 0Z" fill="#FF4433"/>
<path fill-rule="evenodd" clip-rule="evenodd" d="M20.0449 21.6615C23.1464 21.6615 25.66 19.1464 25.66 16.0463C25.66 12.9448 23.1464 10.4297 20.0449 10.4297C16.9433 10.4297 14.4297 12.9448 14.4297 16.0463C14.4297 19.1464 16.9433 21.6615 20.0449 21.6615Z" fill="white"/>
</svg>
